# AST/ASF file generated using VICON BodyLanguage
# -----------------------------------------------
:version 1.10
:name VICON
:units
  mass 1.0
  length 0.45
  angle deg
:documentation
   .ast/.asf automatically generated from VICON data using
   VICON BodyBuilder and BodyLanguage model FoxedUp or BRILLIANT.MOD
:root
   order TX TY TZ RX RY RZ
   axis XYZ
   position 0 0 0  
   orientation 0 0 0 
:bonedata
  begin
     id 1 
     name lhipjoint
     direction 0.635376 -0.686425 0.353719 
     length 2.47244 
     axis 0 0 0  XYZ
  end
  begin
     id 2 
     name lfemur
     direction 0.34202 -0.939693 0  
     length 7.25268  
     axis 0 0 20  XYZ
    dof rx ry rz
    limits (-160.0 20.0)
           (-70.0 70.0)
           (-60.0 70.0)
  end
  begin
     id 3 
     name ltibia
     direction 0.34202 -0.939693 0   
     length 7.6767   
     axis 0 0 20   XYZ
    dof rx
    limits (-10.0 170.0)
  end
  begin
     id 4 
     name lfoot
     direction 0.0803374 -0.220725 0.972022   
     length 2.22945   
     axis -90 7.62852e-016 20   XYZ
    dof rx rz
    limits (-45.0 90.0)
           (-70.0 20.0)
  end
  begin
     id 5 
     name ltoes
     direction 1.53579e-011 -4.21994e-011 1   
     length 1.11848   
     axis -90 7.62852e-016 20   XYZ
    dof rx
    limits (-90.0 20.0)
  end
  begin
     id 6 
     name rhipjoint
     direction -0.664428 -0.664335 0.342336   
     length 2.55466  
     axis 0 0 0  XYZ 
  end
  begin
     id 7 
     name rfemur
     direction -0.34202 -0.939693 0   
     length 6.83172   
     axis 0 0 -20   XYZ
    dof rx ry rz
    limits (-160.0 20.0)
           (-70.0 70.0)
           (-70.0 60.0)
  end
  begin
     id 8 
     name rtibia
     direction -0.34202 -0.939693 0   
     length 7.62692   
     axis 0 0 -20   XYZ
    dof rx
    limits (-10.0 170.0)
 end
 begin
     id 9 
     name rfoot
     direction -0.0949276 -0.260811 0.960711   
     length 2.19684  
     axis -90 -7.62852e-016 -20   XYZ
    dof rx rz
    limits (-45.0 90.0)
           (-20.0 70.0)
  end
  begin
     id 10 
     name rtoes
     direction -1.53543e-011 -4.2183e-011 1   
     length 1.09848   
     axis -90 -7.62852e-016 -20   XYZ
    dof rx
    limits (-90.0 20.0)
  end
  begin
     id 11 
     name lowerback
     direction 0.0118782 0.999815 -0.0151555   
     length 2.15772   
     axis 0 0 0   XYZ
    dof rx ry rz
    limits (-20.0 45.0)
           (-30.0 30.0)
           (-30.0 30.0)
  end
  begin
     id 12 
     name upperback
     direction 0.00130825 0.999065 0.0432113   
     length 2.14863   
     axis 0 0 0   XYZ
    dof rx ry rz
    limits (-20.0 45.0)
           (-30.0 30.0)
           (-30.0 30.0)
  end
  begin
     id 13 
     name thorax
     direction -0.00347005 0.998773 0.0494011   
     length 2.14936   
     axis 0 0 0   XYZ
    dof rx ry rz
    limits (-20.0 45.0)
           (-30.0 30.0)
           (-30.0 30.0)
  end
  begin
     id 14 
     name lowerneck
     direction -0.0262159 0.99424 0.103921   
     length 1.69373   
     axis 0 0 0   XYZ
    dof rx ry rz
    limits (-20.0 45.0)
           (-30.0 30.0)
           (-30.0 30.0)
  end
  begin
     id 15 
     name upperneck
     direction 0.0353511 0.977394 -0.20845   
     length 1.70857   
     axis 0 0 0   XYZ
    dof rx ry rz
    limits (-20.0 45.0)
           (-30.0 30.0)
           (-30.0 30.0)
  end
  begin
     id 16
     name head
     direction 0.0139214 0.996594 -0.0812836  
     length 1.72777  
     axis 0 0 0   XYZ
    dof rx ry rz
    limits (-20.0 45.0)
           (-30.0 30.0)
           (-30.0 30.0)
  end
  begin
     id 17 
     name lclavicle
     direction 0.841247 0.537205 -0.0609508  
     length 3.55371  
     axis 0 0 0   XYZ
    dof ry rz
    limits (-20.0 10.0)
           (0.0 20.0)
  end
  begin
     id 18 
     name lhumerus
     direction 1 -4.48964e-011 1.60116e-018   
     length 4.91377   
     axis -180 -30 -90   XYZ
    dof rx ry rz
    limits (-60.0 90.0)
           (-90.0 90.0)
           (-90.0 90.0)
  end
  begin
     id 19
     name lradius
     direction 1 -4.48989e-011 -8.93847e-027   
     length 3.00291   
     axis -180 -30 -90   XYZ
    dof rx
    limits (-10.0 170.0)
  end
  begin
     id 20
     name lwrist
     direction 1 -4.48932e-011 -7.31504e-027   
     length 1.50145   
     axis 5.74121e-015 90 90   XYZ
    dof ry
    limits (-180.0 0.0)
 end
  begin
     id 21 
     name lhand
     direction 1 -4.48971e-011 -1.46301e-026   
     length 0.450922   
     axis 9.33524e-015 90 90   XYZ
    dof rx rz
    limits (-90.0 90.0)
           (-45.0 45.0)
  end
  begin
     id 22 
     name lfingers
     direction 1 -4.49039e-011 -2.92602e-026   
     length 0.363545   
     axis 1.86705e-014 90 90   XYZ
    dof rx
    limits (0.0 90.0)
  end
  begin
     id 23
     name lthumb
     direction 0.707107 -6.34941e-011 0.707107   
     length 0.52198   
     axis -90 45 2.85299e-015   XYZ
    dof rx rz
    limits (-45.0 45.0)
           (-45.0 45.0)
  end
  begin
     id 24 
     name rclavicle
     direction -0.825079 0.56158 -0.0622297   
     length 3.39909  
     axis 0 0 0   XYZ 
    dof ry rz
    limits (-10.0 20.0)
           (-20.0 0.0)
  end
  begin
     id 25 
     name rhumerus
     direction -1 -4.48965e-011 1.61691e-027  
     length 4.86725   
     axis -180 30 90   XYZ
    dof rx ry rz
    limits (-90.0 60.0)
           (-90.0 90.0)
           (-90.0 90.0)
  end
  begin
     id 26 
     name rradius
     direction -1 -4.48964e-011 -2.25776e-027   
     length 3.17144   
     axis -180 30 90   XYZ
    dof rx
    limits (-10.0 170.0)
  end
  begin
     id 27 
     name rwrist
     direction -1 -4.48961e-011 -7.31504e-027   
     length 1.58572   
     axis 5.74121e-015 -90 -90   XYZ
    dof ry
    limits (-180.0 0.0)
  end
  begin
     id 28
     name rhand
     direction -1 -4.49013e-011 -1.46301e-026   
     length 0.419368   
     axis 9.33524e-015 -90 -90   XYZ
    dof rx rz
    limits (-90.0 90.0)
           (-45.0 45.0)
  end
  begin
     id 29
     name rfingers
     direction -1 -4.489e-011 -2.92602e-026   
     length 0.338105   
     axis 1.86705e-014 -90 -90   XYZ
    dof rx
    limits (0.0 90.0)
  end
  begin
     id 30
     name rthumb
     direction -0.707107 -6.35022e-011 0.707107   
     length 0.485453   
     axis -90 -45 -2.85299e-015   XYZ
    dof rx rz
    limits (-45.0 45.0)
           (-45.0 45.0)
  end
:hierarchy
  begin
    root lhipjoint rhipjoint lowerback
    lhipjoint lfemur
    lfemur ltibia
    ltibia lfoot
    lfoot ltoes
    rhipjoint rfemur
    rfemur rtibia
    rtibia rfoot
    rfoot rtoes
    lowerback upperback
    upperback thorax
    thorax lowerneck lclavicle rclavicle
    lowerneck upperneck
    upperneck head
    lclavicle lhumerus
    lhumerus lradius
    lradius lwrist
    lwrist lhand lthumb
    lhand lfingers
    rclavicle rhumerus
    rhumerus rradius
    rradius rwrist
    rwrist rhand rthumb
    rhand rfingers
  end

#!OML:ASF H:\Swim 2\Project 1\Capture day 1\Session 1\male.ASF
:FULLY-SPECIFIED
:DEGREES
1133
root 2.50882 14.4337 8.96994 101.403 8.4542 -5.60716
lowerback -23.2952 5.09547 1.26249
upperback -2.93364 5.56404 10.9082
thorax 8.66968 2.5898 13.482
lowerneck -1.98447 2.83176 -4.35351
upperneck 7.09059 4.26004 -4.55871
head 2.60189 1.86044 -0.5923
rclavicle -3.18055e-014 -9.16397e-014
rhumerus 68.4637 -16.6244 8.2571
rradius 30.6533
rwrist 9.30328
rhand -28.8053 4.65342
rfingers 7.12502
rthumb -2.16367 -25.3154
lclavicle -3.18055e-014 -9.16397e-014
lhumerus 0.215873 -3.10329 -5.52284
lradius 47.8696
lwrist 27.7106
lhand -10.7315 -8.54139
lfingers 7.12502
lthumb 15.2792 20.8743
rfemur -43.9499 -0.0725867 12.0064
rtibia 43.3439
rfoot 18.3853 -2.62219
rtoes 22.4282
lfemur -43.9794 6.51485 -35.8159
ltibia 51.0649
lfoot 6.15271 6.56405
ltoes 3.05699
1134
root 2.50159 14.4273 8.9719 101.532 8.54024 -5.96107
lowerback -23.4376 5.08281 1.25939
upperback -3.01782 5.55022 10.8475
thorax 8.65862 2.58778 13.4163
lowerneck -2.25044 2.85072 -4.3444
upperneck 7.1796 4.31447 -4.6524
head 2.68401 1.87796 -0.617803
rclavicle -9.85972e-014 9.54166e-015
rhumerus 68.0295 -16.2334 7.96623
rradius 30.7459
rwrist 9.3453
rhand -28.9667 4.67392
rfingers 7.12502
rthumb -2.31958 -25.2932
lclavicle -9.85972e-014 9.54166e-015
lhumerus 0.708129 -1.28195 -5.90449
lradius 49.8397
lwrist 28.595
lhand -10.1081 -8.54367
lfingers 7.12502
lthumb 15.8796 20.8252
rfemur -43.9154 0.0727289 12.0954
rtibia 44.2015
rfoot 18.9871 -2.1045
rtoes 21.8488
lfemur -44.4747 6.43966 -35.6008
ltibia 49.1111
lfoot 5.64005 8.08642
ltoes 3.18853
1135
root 2.49687 14.4217 8.9768 101.7 8.59507 -6.26603
lowerback -23.5867 5.04529 1.2439
upperback -3.11644 5.50769 10.7721
thorax 8.64098 2.57219 13.3307
lowerneck -2.5265 2.87851 -4.352
upperneck 7.24329 4.38302 -4.77107
head 2.76029 1.90186 -0.648023
rclavicle 1.11319e-014 1.00386e-013
rhumerus 67.6058 -15.8718 7.5654
rradius 30.8445
rwrist 9.40773
rhand -29.2465 4.76682
rfingers 7.12502
rthumb -2.58977 -25.1972
lclavicle 1.11319e-014 1.00386e-013
lhumerus 1.2106 0.430704 -6.29217
lradius 51.67
lwrist 29.3302
lhand -9.8162 -8.55559
lfingers 7.12502
lthumb 16.1606 20.7907
rfemur -43.8978 0.166251 12.1563
rtibia 44.9849
rfoot 19.6218 -1.64629
rtoes 21.3163
lfemur -44.9021 6.25151 -35.3751
ltibia 46.986
lfoot 5.10919 9.51688
ltoes 3.34374
1136
root 2.49481 14.417 8.98347 101.902 8.61765 -6.50324
lowerback -23.7329 4.97859 1.22348
upperback -3.22832 5.4289 10.6832
thorax 8.61527 2.53944 13.2188
lowerneck -2.79695 2.91754 -4.40047
upperneck 7.26832 4.46657 -4.8882
head 2.82189 1.93343 -0.67055
rclavicle 5.725e-014 -6.82825e-014
rhumerus 67.2074 -15.5459 7.04486
rradius 30.9318
rwrist 9.47969
rhand -29.5887 4.91766
rfingers 7.12502
rthumb -2.92022 -25.0421
lclavicle 5.725e-014 -6.82825e-014
lhumerus 1.73126 2.05114 -6.68338
lradius 53.3205
lwrist 29.8925
lhand -9.8471 -8.57206
lfingers 7.12502
lthumb 16.1309 20.7766
rfemur -43.8968 0.189417 12.1929
rtibia 45.6967
rfoot 20.3171 -1.21844
rtoes 20.9425
lfemur -45.2486 5.92747 -35.1281
ltibia 44.7335
lfoot 4.54883 10.8088
ltoes 3.44485
1137
root 2.49512 14.4131 8.99041 102.127 8.61085 -6.6633
lowerback -23.8684 4.88222 1.20412
upperback -3.34967 5.31148 10.5837
thorax 8.58213 2.48822 13.0788
lowerneck -3.05762 2.96456 -4.50268
upperneck 7.26256 4.55999 -4.9787
head 2.8694 1.9704 -0.675225
rclavicle 9.85972e-014 1.81391e-013
rhumerus 66.83 -15.2639 6.44042
rradius 31.0007
rwrist 9.5307
rhand -29.9224 5.09794
rfingers 7.12502
rthumb -3.24249 -24.8571
lclavicle 9.85972e-014 1.81391e-013
lhumerus 2.27829 3.60171 -7.06908
lradius 54.7724
lwrist 30.2951
lhand -10.1457 -8.59416
lfingers 7.12502
lthumb 15.8433 20.7776
rfemur -43.9122 0.13466 12.2124
rtibia 46.3392
rfoot 21.0922 -0.787532
rtoes 20.7895
lfemur -45.5065 5.45172 -34.8428
ltibia 42.4147
lfoot 3.94938 11.9335
ltoes 3.42911
1138
root 2.49728 14.41 8.99644 102.36 8.58008 -6.7464
lowerback -23.9873 4.75938 1.18734
upperback -3.47472 5.15897 10.4776
thorax 8.54387 2.41989 12.9158
lowerneck -3.31662 3.01191 -4.65737
upperneck 7.25581 4.65418 -5.02465
head 2.91371 2.00772 -0.656464
rclavicle -7.31528e-014 -7.59357e-014
rhumerus 66.4474 -15.0331 5.83313
rradius 31.056
rwrist 9.5129
rhand -30.178 5.27197
rfingers 7.12502
rthumb -3.48931 -24.6792
lclavicle -7.31528e-014 -7.59357e-014
lhumerus 2.86357 5.10774 -7.43368
lradius 56.0226
lwrist 30.5755
lhand -10.6238 -8.63064
lfingers 7.12502
lthumb 15.3829 20.7771
rfemur -43.9409 0.00473399 12.2241
rtibia 46.9102
rfoot 21.9509 -0.324454
rtoes 20.832
lfemur -45.6736 4.81914 -34.5004
ltibia 40.1038
lfoot 3.3107 12.875
ltoes 3.25514
1139
root 2.50053 14.4074 9.00099 102.588 8.53219 -6.7628
lowerback -24.0861 4.61642 1.16849
upperback -3.59633 4.98057 10.3701
thorax 8.50358 2.33843 12.7421
lowerneck -3.59086 3.05276 -4.84742
upperneck 7.28526 4.74299 -5.02963
head 2.9711 2.04103 -0.618045
rclavicle -2.06736e-014 -9.26337e-014
rhumerus 66.0204 -14.8572 5.32313
rradius 31.109
rwrist 9.37507
rhand -30.3068 5.40505
rfingers 7.12502
rthumb -3.61373 -24.5441
lclavicle -2.06736e-014 -9.26337e-014
lhumerus 3.50308 6.59303 -7.75483
lradius 57.0757
lwrist 30.7794
lhand -11.1879 -8.68959
lfingers 7.12502
lthumb 14.8394 20.759
rfemur -43.9766 -0.185088 12.237
rtibia 47.4008
rfoot 22.8724 0.179012
rtoes 20.939
lfemur -45.7541 4.03896 -34.0847
ltibia 37.8835
lfoot 2.64741 13.6298
ltoes 2.92027
